<?xml version="1.0" standalone="no"?>
<!DOCTYPE svg PUBLIC "-//W3C//DTD SVG 20010904//EN"
 "http://www.w3.org/TR/2001/REC-SVG-20010904/DTD/svg10.dtd">
<svg version="1.0" xmlns="http://www.w3.org/2000/svg"
 width="780.000000pt" height="1182.000000pt" viewBox="0 0 780.000000 1182.000000"
 preserveAspectRatio="xMidYMid meet">

<g transform="translate(0.000000,1182.000000) scale(0.100000,-0.100000)"
fill="#FF4A57" stroke="none">
<path d="M3854 11791 c-67 -41 -64 18 -64 -1196 l0 -1096 -132 3 -133 3 -3
371 -2 371 -24 23 c-15 13 -42 24 -68 27 -54 6 -93 -21 -108 -75 -6 -22 -10
-171 -10 -364 0 -283 -2 -329 -16 -342 -12 -13 -40 -16 -135 -16 l-119 0 0
299 c0 164 -3 312 -6 329 -4 19 -85 127 -226 299 -121 147 -283 346 -361 442
-78 96 -150 183 -160 193 -17 18 -17 23 -1 99 19 93 10 167 -29 252 -72 154
-230 231 -376 182 -68 -22 -148 -96 -186 -172 -28 -53 -30 -66 -30 -163 1
-130 23 -195 96 -274 79 -86 185 -120 289 -92 l55 15 38 -42 c21 -23 59 -69
84 -102 26 -33 153 -187 283 -343 129 -155 250 -301 268 -323 l32 -41 0 -278
0 -278 -183 -4 -183 -3 -80 -39 c-108 -54 -195 -142 -252 -257 -59 -119 -72
-190 -72 -396 l0 -173 -484 0 -484 0 -22 45 c-53 109 -167 187 -275 188 -113
1 -217 -65 -275 -175 -28 -51 -34 -76 -38 -141 -10 -178 54 -307 190 -379 59
-31 193 -33 253 -3 53 26 106 81 141 146 l29 54 483 3 482 2 0 -155 0 -155
-305 0 c-206 0 -312 -4 -329 -11 -69 -32 -74 -183 -7 -219 12 -6 136 -10 330
-10 l311 0 0 -160 0 -160 -986 0 c-623 0 -992 -4 -1004 -10 -22 -12 -40 -61
-40 -110 0 -45 36 -101 70 -111 14 -4 460 -7 993 -8 l967 -1 0 -155 0 -155
-315 0 -316 0 -24 -26 c-46 -50 -46 -151 0 -191 26 -23 29 -23 341 -23 l314 0
0 -155 0 -155 -298 0 c-265 0 -301 -2 -328 -17 -18 -10 -180 -187 -360 -393
-181 -206 -355 -401 -386 -434 -56 -57 -58 -58 -95 -50 -64 15 -155 10 -208
-10 -66 -26 -147 -103 -176 -169 -17 -39 -24 -77 -27 -149 -8 -177 50 -293
176 -355 117 -57 270 -28 356 67 48 53 75 109 92 192 13 64 13 78 -3 154 l-17
84 71 73 c39 39 176 196 305 347 129 151 262 303 295 338 l61 62 271 0 271 0
0 -152 c0 -84 5 -182 10 -218 41 -254 201 -441 419 -485 36 -8 128 -15 203
-17 l138 -3 0 -597 c0 -535 -2 -598 -16 -598 -24 0 -118 -94 -147 -148 -69
-128 -45 -334 53 -446 78 -89 227 -122 333 -73 109 50 184 151 207 279 26 139
-46 311 -153 368 l-47 25 0 599 0 598 121 -3 c174 -6 161 26 153 -373 -8 -359
-5 -385 48 -412 40 -21 102 -13 134 17 l24 22 2 371 3 371 130 0 130 0 5
-1110 c5 -1031 6 -1112 22 -1142 25 -44 55 -63 103 -63 32 0 47 6 66 26 l24
26 5 1131 5 1132 118 3 117 3 0 -357 c0 -393 2 -410 61 -434 38 -16 96 -6 125
21 l24 22 2 371 3 371 143 3 142 3 0 -299 c0 -291 1 -300 23 -340 12 -23 197
-254 410 -514 l388 -472 -8 -55 c-14 -110 -7 -186 25 -255 122 -260 441 -267
558 -12 74 162 48 337 -67 453 -80 81 -172 102 -299 68 -30 -8 -55 -13 -55
-12 -1 1 -71 85 -157 187 -243 291 -521 632 -556 682 l-32 47 0 260 0 261 168
0 c125 0 182 4 223 16 179 53 327 217 379 420 16 63 20 111 20 256 l0 178 478
0 479 0 14 -42 c20 -62 101 -140 168 -163 76 -25 188 -17 257 18 102 52 163
155 171 291 11 176 -68 311 -216 367 -79 30 -190 23 -254 -14 -57 -34 -103
-88 -125 -149 l-17 -48 -477 0 -478 0 0 155 0 155 305 0 306 0 24 24 c46 46
39 163 -13 202 -13 10 -85 13 -319 14 l-303 0 0 155 0 155 980 2 980 3 25 26
c41 40 46 136 11 185 -14 18 -42 19 -1003 24 l-988 5 0 155 0 155 307 3 307 2
20 25 c43 56 35 155 -16 195 -24 19 -40 20 -324 20 l-299 0 0 155 0 155 282 0
c341 0 331 -3 441 129 160 193 427 502 515 596 51 55 107 121 125 147 18 26
38 46 45 43 7 -2 49 -10 95 -16 109 -16 173 1 245 66 192 173 142 530 -86 615
-120 45 -247 24 -325 -54 -79 -79 -112 -187 -102 -336 7 -94 6 -96 -22 -131
-75 -96 -519 -605 -606 -696 l-100 -103 -253 0 -254 0 0 154 c0 202 -18 306
-72 415 -72 148 -209 259 -356 290 -29 6 -123 11 -207 11 l-155 0 0 619 0 618
69 62 c90 79 122 144 129 254 11 187 -87 351 -233 388 -61 15 -161 7 -211 -19
-120 -61 -207 -241 -190 -392 13 -104 87 -220 171 -266 l35 -19 0 -623 0 -623
-142 3 -143 3 -5 378 c-5 364 -6 379 -25 393 -50 36 -125 27 -159 -19 -20 -27
-21 -41 -24 -393 l-3 -365 -117 3 -117 3 -5 1120 c-4 881 -8 1125 -18 1142
-26 46 -85 56 -138 24z m-1817 -457 c12 -8 27 -32 34 -53 11 -35 9 -45 -12
-88 -22 -44 -27 -48 -64 -51 -108 -7 -155 110 -75 189 24 24 34 28 62 23 18
-4 43 -13 55 -20z m2866 -145 c51 -23 72 -101 42 -159 -19 -36 -43 -50 -87
-50 -45 0 -75 23 -89 69 -28 94 51 178 134 140z m2469 -1479 c39 -30 53 -73
39 -120 -12 -41 -61 -90 -89 -90 -28 0 -82 38 -92 66 -21 55 -3 130 37 153 29
17 78 12 105 -9z m-2031 -476 c55 -26 123 -85 155 -135 57 -91 54 -3 52 -1729
l-3 -1585 -23 -57 c-30 -74 -103 -155 -167 -184 l-50 -24 -1401 0 -1400 0 -51
25 c-64 32 -127 99 -161 173 l-27 57 0 1615 0 1615 26 56 c43 91 107 144 219
180 52 17 135 18 1420 16 l1365 -2 46 -21z m-4520 -634 c28 -16 49 -63 49
-114 0 -37 -5 -48 -31 -70 -86 -73 -187 13 -149 128 19 58 78 84 131 56z
m6272 -2251 c31 -34 37 -91 12 -138 -16 -32 -33 -41 -76 -41 -64 0 -98 35 -99
101 0 105 95 151 163 78z m-6560 -1109 c55 -44 56 -139 2 -174 -39 -25 -101
-21 -132 10 -22 23 -25 32 -21 80 6 70 35 104 88 104 22 0 48 -8 63 -20z
m2465 -1426 c49 -56 13 -175 -55 -182 -61 -6 -123 49 -123 108 0 91 119 141
178 74z m2939 -229 c64 -72 25 -195 -61 -195 -77 0 -122 79 -90 159 29 72 104
90 151 36z"/>
<path d="M4032 8254 c-36 -25 -71 -106 -106 -252 -19 -75 -78 -303 -131 -507
-204 -780 -197 -754 -192 -827 11 -133 81 -197 167 -153 43 22 61 67 113 270
254 994 327 1289 327 1317 0 43 -42 131 -71 152 -30 20 -78 21 -107 0z"/>
<path d="M3335 8158 c-32 -17 -140 -125 -228 -228 -45 -52 -131 -149 -191
-215 -139 -154 -206 -248 -206 -290 0 -43 70 -141 207 -292 98 -107 140 -154
325 -366 68 -77 105 -94 169 -77 95 26 124 107 74 206 -14 27 -104 141 -201
254 -97 113 -191 223 -210 246 l-34 41 37 39 c77 82 387 439 410 472 43 64 25
165 -35 195 -40 21 -94 28 -117 15z"/>
<path d="M4373 8155 c-37 -16 -73 -68 -73 -106 0 -37 19 -88 51 -134 31 -46
313 -354 394 -431 l54 -52 -151 -162 c-293 -319 -328 -366 -328 -444 0 -90 67
-157 141 -141 45 10 120 75 216 187 49 56 159 182 245 281 86 99 164 195 173
214 31 66 10 102 -190 325 -66 73 -155 174 -196 223 -102 120 -209 222 -253
240 -42 18 -42 18 -83 0z"/>
<path d="M3383 2707 l-42 -62 39 -3 c35 -3 47 3 90 40 28 24 57 53 66 66 l14
22 -62 0 -63 -1 -42 -62z"/>
<path d="M4453 2571 c-68 -32 -93 -91 -79 -186 9 -57 47 -102 123 -145 100
-57 125 -98 83 -140 -26 -26 -84 -26 -152 0 -29 11 -56 20 -60 20 -5 0 -8 -26
-8 -58 l0 -59 60 -18 c169 -51 302 33 288 183 -6 67 -31 98 -123 157 -95 62
-107 75 -103 112 5 47 46 59 125 38 35 -10 65 -16 67 -14 1 2 9 23 18 47 l16
42 -31 17 c-50 26 -172 28 -224 4z"/>
<path d="M2105 2293 c-48 -159 -90 -294 -93 -301 -3 -10 10 -12 59 -10 l63 3
16 65 16 65 99 0 c110 0 99 9 125 -92 l11 -43 59 0 c33 0 60 3 60 6 0 3 -39
130 -86 282 -48 153 -89 285 -91 295 -5 14 -17 17 -77 17 l-72 0 -89 -287z
m198 60 c15 -56 27 -106 27 -112 0 -7 -26 -11 -65 -11 -36 0 -65 3 -65 8 0 7
44 177 56 216 9 29 19 8 47 -101z"/>
<path d="M2600 2280 l0 -300 51 0 50 0 -3 220 c-2 170 0 217 9 204 6 -8 58
-107 115 -220 l103 -204 73 0 72 0 0 300 0 300 -50 0 -50 0 0 -217 -1 -218
-52 97 c-29 53 -79 151 -112 217 l-60 121 -72 0 -73 0 0 -300z"/>
<path d="M3320 2566 c0 -8 -38 -138 -85 -288 -47 -151 -85 -280 -85 -286 0 -8
21 -12 59 -12 58 0 59 0 65 32 3 18 11 49 17 70 l10 38 99 0 98 0 18 -70 18
-70 58 0 c40 0 58 4 58 13 0 6 -40 140 -89 297 l-89 285 -76 3 c-61 2 -76 0
-76 -12z m119 -220 c17 -60 31 -111 31 -113 0 -2 -32 -3 -71 -3 -52 0 -69 3
-66 13 3 6 18 60 33 119 16 59 32 104 36 100 4 -4 21 -56 37 -116z"/>
<path d="M3730 2280 l0 -300 165 0 165 0 0 55 0 55 -110 0 -110 0 0 245 0 245
-55 0 -55 0 0 -300z"/>
<path d="M4150 2280 l0 -300 55 0 55 0 0 300 0 300 -55 0 -55 0 0 -300z"/>
<path d="M4810 2280 l0 -300 155 0 155 0 0 39 c0 70 -2 71 -106 71 l-94 0 0
75 0 75 90 0 90 0 0 55 0 55 -90 0 -90 0 0 65 0 64 98 3 97 3 3 48 3 47 -155
0 -156 0 0 -300z"/>
<path d="M5420 2280 l0 -300 155 0 155 0 0 55 0 55 -100 0 -100 0 0 75 0 75
89 0 c101 0 109 7 96 76 l-6 34 -89 0 -90 0 0 65 0 64 98 3 97 3 3 48 3 47
-155 0 -156 0 0 -300z"/>
<path d="M1325 1590 c-58 -29 -79 -63 -83 -136 -6 -94 23 -137 143 -209 65
-40 84 -60 85 -91 1 -55 -102 -73 -189 -34 -24 11 -45 20 -47 20 -2 0 -4 -26
-4 -58 0 -54 2 -60 28 -72 15 -7 63 -15 107 -17 70 -4 85 -2 124 19 83 44 113
146 70 234 -20 42 -74 86 -156 128 -52 26 -69 78 -37 110 20 20 84 21 131 1
41 -17 45 -15 62 34 17 52 15 56 -42 74 -73 23 -143 22 -192 -3z"/>
<path d="M3295 1590 c-93 -46 -137 -136 -137 -280 1 -158 47 -261 136 -301 55
-25 167 -25 222 0 55 25 111 94 131 160 20 70 14 236 -11 296 -22 52 -71 103
-121 126 -55 26 -166 25 -220 -1z m196 -116 c35 -31 49 -78 49 -161 0 -98 -14
-149 -50 -185 -39 -39 -114 -40 -159 -2 -44 37 -65 116 -56 208 12 122 54 171
142 164 33 -3 61 -12 74 -24z"/>
<path d="M4453 1595 c-14 -10 -123 -389 -123 -426 0 -10 -4 -20 -8 -23 -5 -3
-30 75 -56 172 -26 97 -54 201 -62 230 l-15 52 -55 0 c-30 0 -54 -3 -54 -7 0
-5 39 -140 87 -300 l87 -293 62 0 62 0 16 48 c8 26 47 155 86 287 39 132 73
245 75 252 5 15 -83 22 -102 8z"/>
<path d="M5305 1601 c-16 -7 -32 -50 -79 -222 -33 -118 -63 -218 -67 -223 -8
-9 -6 -17 -59 184 -23 85 -48 179 -56 208 l-15 52 -75 0 -74 0 0 -300 0 -300
45 0 45 0 2 228 3 227 61 -225 61 -225 54 -3 54 -3 65 227 65 227 3 -226 2
-227 50 0 50 0 0 300 0 300 -44 0 c-24 0 -50 2 -58 4 -7 3 -22 1 -33 -3z"/>
<path d="M7145 1592 c-96 -46 -137 -121 -143 -264 -4 -79 0 -110 17 -168 39
-127 116 -177 260 -168 88 5 140 37 185 118 30 54 31 57 31 190 0 133 -1 136
-31 190 -45 80 -104 114 -203 118 -58 2 -85 -2 -116 -16z m169 -104 c44 -20
71 -90 71 -188 0 -132 -47 -203 -134 -203 -85 0 -130 67 -131 193 0 143 40
210 124 210 25 0 56 -5 70 -12z"/>
<path d="M300 1300 l0 -300 113 0 c138 0 177 10 232 61 67 62 90 124 90 244 0
90 -3 106 -28 158 -52 104 -123 137 -299 137 l-108 0 0 -300z m257 174 c36
-23 56 -73 61 -152 6 -87 -14 -149 -59 -187 -25 -21 -41 -25 -90 -25 l-59 0 0
188 c0 104 3 192 8 196 11 11 114 -3 139 -20z"/>
<path d="M840 1300 l0 -300 155 0 155 0 0 55 0 55 -100 0 -101 0 3 73 3 72 93
3 93 3 -3 52 -3 52 -93 3 -93 3 3 62 3 62 98 3 97 3 0 49 0 50 -155 0 -155 0
0 -300z"/>
<path d="M1670 1300 l0 -300 155 0 155 0 0 49 c0 59 -4 61 -111 61 l-79 0 0
75 0 75 91 0 90 0 -3 53 -3 52 -88 3 -88 3 3 62 3 62 93 3 92 3 0 49 0 50
-155 0 -155 0 0 -300z"/>
<path d="M2090 1299 l0 -300 53 3 52 3 -3 220 -3 220 43 -76 c24 -42 75 -142
113 -222 l70 -146 78 0 77 -1 0 300 0 300 -57 0 -56 0 6 -215 c3 -118 2 -215
-1 -215 -4 0 -56 97 -116 215 l-110 215 -73 0 -73 0 0 -301z"/>
<path d="M2644 1583 c47 -151 166 -559 166 -569 0 -12 14 -14 67 -12 l67 3 82
275 c46 151 85 285 89 298 5 21 2 22 -49 22 l-54 0 -16 -47 c-28 -88 -106
-377 -106 -395 0 -34 -17 -18 -24 23 -4 22 -29 119 -56 216 -28 96 -50 182
-50 189 0 10 -16 14 -61 14 -53 0 -60 -2 -55 -17z"/>
<path d="M3767 1593 c-4 -3 -7 -138 -7 -300 l0 -293 171 0 170 0 -3 53 -3 52
-107 3 -108 3 0 244 0 245 -53 0 c-30 0 -57 -3 -60 -7z"/>
<path d="M4630 1300 l0 -300 55 0 55 0 0 300 0 300 -55 0 -55 0 0 -300z"/>
<path d="M5570 1300 l0 -300 156 0 155 0 -3 53 -3 52 -98 3 -98 3 3 72 3 72
93 3 93 3 -3 52 -3 52 -93 3 -93 3 3 62 3 62 98 3 97 3 0 49 0 50 -155 0 -155
0 0 -300z"/>
<path d="M5990 1300 l0 -300 50 0 50 0 2 218 3 217 110 -217 110 -218 72 0 73
0 0 300 0 300 -50 0 -51 0 3 -215 c2 -118 0 -215 -5 -215 -4 0 -55 97 -114
215 l-108 215 -72 0 -73 0 0 -300z"/>
<path d="M6540 1550 l0 -49 73 -3 72 -3 3 -247 2 -248 55 0 55 0 2 248 3 247
73 3 72 3 0 49 0 50 -205 0 -205 0 0 -50z"/>
<path d="M2800 608 c-62 -32 -93 -92 -86 -166 6 -72 36 -114 109 -158 81 -48
117 -82 117 -110 0 -27 -23 -52 -56 -60 -27 -7 -102 9 -146 32 l-28 15 0 -61
c0 -59 1 -61 33 -74 119 -49 247 -14 296 81 19 36 13 115 -11 162 -19 35 -40
54 -108 95 -89 54 -116 89 -94 123 24 39 59 40 169 8 17 -5 23 2 38 41 20 55
19 56 -57 79 -70 21 -124 19 -176 -7z"/>
<path d="M3460 608 c-59 -30 -85 -76 -84 -148 1 -89 37 -138 147 -199 61 -35
77 -54 77 -95 0 -59 -86 -71 -186 -27 l-44 20 0 -60 c0 -60 0 -60 37 -76 21
-8 69 -16 108 -16 61 -1 78 3 119 27 56 33 76 71 76 147 0 90 -26 123 -152
198 -62 38 -82 68 -69 105 16 39 73 48 138 21 19 -8 39 -15 43 -15 5 0 15 21
24 47 18 54 18 55 -58 78 -70 21 -124 19 -176 -7z"/>
<path d="M6004 619 c-58 -17 -114 -95 -114 -159 0 -34 22 -91 46 -120 15 -17
57 -49 96 -72 84 -50 106 -78 90 -114 -7 -13 -23 -30 -38 -36 -25 -12 -56 -7
-176 29 -16 5 -18 -2 -18 -51 0 -55 1 -56 38 -72 59 -26 168 -23 217 5 49 28
71 56 86 113 9 32 9 54 0 84 -15 58 -42 88 -114 130 -87 50 -107 71 -107 110
0 53 61 71 137 39 19 -8 39 -15 43 -15 4 0 15 21 25 46 20 54 19 55 -59 79
-55 17 -105 18 -152 4z"/>
<path d="M1580 322 l0 -300 50 -7 c56 -8 152 0 220 17 101 27 172 143 172 286
1 129 -44 218 -134 267 -49 27 -63 30 -180 33 l-128 4 0 -300z m251 172 c92
-47 95 -291 4 -350 -15 -10 -53 -20 -86 -22 l-59 -4 0 196 0 196 55 0 c31 0
69 -7 86 -16z"/>
<path d="M2120 320 l0 -300 155 0 155 0 0 50 0 50 -94 0 c-107 0 -105 -3 -98
103 l4 57 89 0 89 0 0 50 0 50 -90 0 -90 0 0 65 0 65 95 0 95 0 0 55 0 55
-155 0 -155 0 0 -300z"/>
<path d="M3150 320 l0 -300 55 0 55 0 0 300 0 300 -55 0 -55 0 0 -300z"/>
<path d="M3780 565 l0 -55 70 0 70 0 0 -245 0 -245 55 0 55 0 0 245 0 245 75
0 75 0 0 55 0 55 -200 0 -200 0 0 -55z"/>
<path d="M4260 320 l0 -300 150 0 150 0 0 50 0 50 -95 0 -95 0 0 80 0 80 90 0
90 0 0 50 0 50 -90 0 -90 0 0 65 0 65 95 0 95 0 0 55 0 55 -150 0 -150 0 0
-300z"/>
<path d="M4680 320 l0 -300 52 0 51 0 -6 221 c-3 122 -4 219 -1 217 2 -3 25
-79 50 -169 24 -90 51 -188 60 -216 l15 -53 53 0 53 0 52 183 c82 285 76 282
79 35 l2 -218 55 0 55 0 0 300 0 301 -82 -3 -82 -3 -65 -218 c-35 -119 -68
-214 -72 -210 -4 5 -26 80 -49 168 -23 88 -48 184 -56 213 l-15 52 -75 0 -74
0 0 -300z"/>
<path d="M5426 363 c-44 -142 -85 -277 -92 -301 l-13 -42 64 0 c56 0 65 2 65
18 0 10 7 42 15 70 l16 52 95 0 c67 0 96 -4 99 -12 2 -7 11 -39 20 -71 l16
-57 60 0 c32 0 59 2 59 4 0 3 -37 121 -81 263 -45 142 -86 275 -91 296 l-10
37 -72 0 -71 0 -79 -257z m181 49 c13 -48 26 -102 30 -119 l6 -33 -67 0 c-47
0 -66 4 -66 13 0 7 9 44 19 82 11 39 24 90 31 114 6 23 14 40 18 37 3 -4 16
-46 29 -94z"/>
</g>
</svg>
