<svg width="407" height="64" viewBox="0 0 407 64" fill="none" xmlns="http://www.w3.org/2000/svg">
<path d="M87.9727 37V7H91.7227V33.875H115.473V37H87.9727ZM122.992 14.5V27C122.992 28.3932 123.096 29.5716 123.305 30.5352C123.513 31.4857 123.93 32.2539 124.555 32.8398C125.18 33.4258 126.065 33.849 127.211 34.1094C128.357 34.3698 129.867 34.5 131.742 34.5C133.773 34.5 135.434 34.3503 136.723 34.0508C138.025 33.7513 139.047 33.3281 139.789 32.7812C140.531 32.2344 141.039 31.5768 141.312 30.8086C141.599 30.0404 141.742 29.1875 141.742 28.25V14.5H145.492V37H141.742V33.25C141.56 33.6536 141.254 34.1029 140.824 34.5977C140.395 35.0794 139.75 35.5286 138.891 35.9453C138.031 36.362 136.918 36.7135 135.551 37C134.197 37.2865 132.51 37.4297 130.492 37.4297C128.812 37.4297 127.367 37.3255 126.156 37.1172C124.958 36.9219 123.936 36.6289 123.09 36.2383C122.257 35.8346 121.586 35.3398 121.078 34.7539C120.57 34.168 120.18 33.4909 119.906 32.7227C119.633 31.9414 119.451 31.0755 119.359 30.125C119.268 29.1745 119.223 28.1328 119.223 27L119.242 14.5H122.992ZM149.887 25.7891C149.887 24.2266 149.965 22.8464 150.121 21.6484C150.277 20.4505 150.551 19.4089 150.941 18.5234C151.345 17.638 151.879 16.9023 152.543 16.3164C153.22 15.7174 154.066 15.2357 155.082 14.8711C156.111 14.5065 157.328 14.2461 158.734 14.0898C160.141 13.9336 161.781 13.8555 163.656 13.8555C166.156 13.8555 168.214 14.0117 169.828 14.3242C171.443 14.6237 172.719 15.0924 173.656 15.7305C174.594 16.3555 175.245 17.1562 175.609 18.1328C175.974 19.0964 176.156 20.2487 176.156 21.5898H172.406C172.406 21.1081 172.393 20.6589 172.367 20.2422C172.341 19.8255 172.243 19.4479 172.074 19.1094C171.918 18.7708 171.664 18.4714 171.312 18.2109C170.961 17.9375 170.46 17.7096 169.809 17.5273C169.158 17.3451 168.331 17.2083 167.328 17.1172C166.339 17.026 165.115 16.9805 163.656 16.9805C161.99 16.9805 160.583 17.0391 159.438 17.1562C158.305 17.2734 157.367 17.4688 156.625 17.7422C155.883 18.0026 155.31 18.3607 154.906 18.8164C154.503 19.2591 154.21 19.806 154.027 20.457C153.845 21.1081 153.734 21.8763 153.695 22.7617C153.669 23.6341 153.656 24.6432 153.656 25.7891C153.656 26.9089 153.669 27.9049 153.695 28.7773C153.734 29.6367 153.845 30.3919 154.027 31.043C154.21 31.681 154.503 32.2214 154.906 32.6641C155.31 33.1068 155.883 33.4648 156.625 33.7383C157.367 34.0117 158.305 34.207 159.438 34.3242C160.583 34.4414 161.99 34.5 163.656 34.5C165.115 34.5 166.339 34.4479 167.328 34.3438C168.331 34.2396 169.158 34.0898 169.809 33.8945C170.46 33.6992 170.961 33.4583 171.312 33.1719C171.664 32.8854 171.918 32.5599 172.074 32.1953C172.243 31.8177 172.341 31.4076 172.367 30.9648C172.393 30.5091 172.406 30.0208 172.406 29.5H176.156C176.156 30.8672 175.974 32.0521 175.609 33.0547C175.245 34.0573 174.594 34.8841 173.656 35.5352C172.719 36.1732 171.443 36.6484 169.828 36.9609C168.214 37.2734 166.156 37.4297 163.656 37.4297C161.781 37.4297 160.141 37.3516 158.734 37.1953C157.328 37.0391 156.111 36.7852 155.082 36.4336C154.066 36.069 153.22 35.5938 152.543 35.0078C151.879 34.4219 151.345 33.6992 150.941 32.8398C150.551 31.9805 150.277 30.9714 150.121 29.8125C149.965 28.6406 149.887 27.2995 149.887 25.7891ZM203.578 33.9141C203.539 34.0703 203.246 34.4609 202.699 35.0859C202.309 35.5547 201.788 35.9714 201.137 36.3359C200.486 36.6875 199.613 36.9609 198.52 37.1562C197.439 37.3646 196.013 37.4688 194.242 37.4688C191.885 37.4688 189.874 37.3451 188.207 37.0977C186.54 36.8633 185.18 36.4987 184.125 36.0039C183.07 35.4961 182.296 34.8516 181.801 34.0703C181.319 33.2891 181.078 32.3581 181.078 31.2773C181.078 30.1445 181.208 29.1875 181.469 28.4062C181.742 27.612 182.133 26.9479 182.641 26.4141C183.161 25.8802 183.786 25.4635 184.516 25.1641C185.245 24.8646 186.072 24.6367 186.996 24.4805C187.934 24.3242 188.956 24.2266 190.062 24.1875C191.169 24.1484 192.348 24.1289 193.598 24.1289C195.382 24.1289 196.872 24.207 198.07 24.3633C199.268 24.5065 200.245 24.6953 201 24.9297C201.768 25.151 202.348 25.3919 202.738 25.6523C203.129 25.9128 203.409 26.1536 203.578 26.375C203.578 24.9167 203.513 23.6732 203.383 22.6445C203.266 21.6159 203.064 20.7565 202.777 20.0664C202.504 19.3763 202.146 18.8294 201.703 18.4258C201.26 18.0091 200.714 17.6966 200.062 17.4883C199.424 17.2799 198.676 17.1497 197.816 17.0977C196.957 17.0326 195.974 17 194.867 17C193.148 17 191.723 17.0456 190.59 17.1367C189.457 17.2148 188.559 17.3776 187.895 17.625C187.23 17.8724 186.762 18.2174 186.488 18.6602C186.215 19.0898 186.078 19.6562 186.078 20.3594H182.328C182.328 19.1745 182.536 18.1719 182.953 17.3516C183.383 16.5312 184.086 15.8672 185.062 15.3594C186.052 14.8385 187.348 14.4609 188.949 14.2266C190.551 13.9922 192.523 13.875 194.867 13.875C197.159 13.875 199.099 14.0638 200.688 14.4414C202.276 14.819 203.559 15.4831 204.535 16.4336C205.525 17.3841 206.234 18.6667 206.664 20.2812C207.107 21.8828 207.328 23.9141 207.328 26.375V37H203.578V33.9141ZM194.867 34.5C196.521 34.5 197.901 34.4219 199.008 34.2656C200.128 34.1094 201.026 33.875 201.703 33.5625C202.38 33.25 202.862 32.8594 203.148 32.3906C203.435 31.9219 203.578 31.375 203.578 30.75C203.578 30.125 203.409 29.5977 203.07 29.168C202.745 28.7253 202.191 28.3672 201.41 28.0938C200.642 27.8203 199.62 27.625 198.344 27.5078C197.068 27.3776 195.492 27.3125 193.617 27.3125C191.742 27.3125 190.225 27.3451 189.066 27.4102C187.921 27.4753 187.035 27.625 186.41 27.8594C185.785 28.0938 185.362 28.4388 185.141 28.8945C184.932 29.3503 184.828 29.9688 184.828 30.75C184.828 31.5312 184.939 32.1693 185.16 32.6641C185.395 33.1458 185.863 33.5234 186.566 33.7969C187.27 34.0703 188.279 34.2591 189.594 34.3633C190.922 34.4544 192.68 34.5 194.867 34.5ZM225.473 26.7461C223.702 26.7461 222.146 26.7201 220.805 26.668C219.464 26.6159 218.305 26.5117 217.328 26.3555C216.365 26.1862 215.557 25.9518 214.906 25.6523C214.268 25.3529 213.76 24.9557 213.383 24.4609C213.005 23.9531 212.738 23.3346 212.582 22.6055C212.426 21.8633 212.348 21.0625 212.348 20.2031C212.348 19.0312 212.595 18.0482 213.09 17.2539C213.585 16.4466 214.379 15.7956 215.473 15.3008C216.566 14.793 217.986 14.4284 219.73 14.207C221.475 13.9857 223.598 13.875 226.098 13.875C228.572 13.875 230.609 14.0052 232.211 14.2656C233.826 14.526 235.102 14.9297 236.039 15.4766C236.99 16.0104 237.654 16.6875 238.031 17.5078C238.409 18.3281 238.598 19.3047 238.598 20.4375H234.848C234.848 19.7344 234.711 19.1615 234.438 18.7188C234.177 18.276 233.715 17.931 233.051 17.6836C232.387 17.4232 231.488 17.2474 230.355 17.1562C229.236 17.0521 227.816 17 226.098 17C224.223 17 222.647 17.026 221.371 17.0781C220.095 17.1302 219.066 17.2604 218.285 17.4688C217.504 17.6771 216.944 17.9961 216.605 18.4258C216.267 18.8555 216.098 19.4479 216.098 20.2031C216.098 20.6458 216.124 21.082 216.176 21.5117C216.241 21.9284 216.378 22.2734 216.586 22.5469C216.794 22.8203 217.1 23.0286 217.504 23.1719C217.908 23.3151 218.454 23.4258 219.145 23.5039C219.848 23.569 220.714 23.6081 221.742 23.6211C222.771 23.6211 224.014 23.6211 225.473 23.6211C227.243 23.6211 228.793 23.6602 230.121 23.7383C231.462 23.8164 232.621 23.9531 233.598 24.1484C234.574 24.3438 235.382 24.6432 236.02 25.0469C236.658 25.4505 237.165 25.8932 237.543 26.375C237.934 26.8438 238.207 27.4036 238.363 28.0547C238.52 28.6927 238.598 29.4349 238.598 30.2812C238.598 31.1276 238.52 31.8893 238.363 32.5664C238.207 33.2305 237.934 33.8229 237.543 34.3438C237.152 34.8516 236.618 35.2943 235.941 35.6719C235.277 36.0365 234.438 36.3359 233.422 36.5703C232.406 36.7917 231.189 36.9544 229.77 37.0586C228.363 37.1758 226.723 37.2344 224.848 37.2344C222.504 37.2344 220.531 37.1172 218.93 36.8828C217.341 36.6484 216.059 36.2773 215.082 35.7695C214.105 35.2487 213.402 34.5781 212.973 33.7578C212.556 32.9375 212.348 31.9349 212.348 30.75H216.098C216.098 31.5312 216.228 32.1693 216.488 32.6641C216.762 33.1458 217.23 33.5234 217.895 33.7969C218.559 34.0703 219.451 34.2591 220.57 34.3633C221.703 34.4544 223.129 34.5 224.848 34.5C226.41 34.5 227.738 34.4674 228.832 34.4023C229.939 34.3242 230.863 34.207 231.605 34.0508C232.348 33.8945 232.934 33.7057 233.363 33.4844C233.793 33.263 234.118 32.9961 234.34 32.6836C234.561 32.3711 234.698 32.026 234.75 31.6484C234.815 31.2578 234.848 30.8281 234.848 30.3594C234.848 29.9297 234.815 29.5521 234.75 29.2266C234.698 28.888 234.568 28.556 234.359 28.2305C234.151 27.8919 233.845 27.638 233.441 27.4688C233.038 27.2995 232.484 27.1628 231.781 27.0586C231.091 26.9414 230.232 26.8633 229.203 26.8242C228.174 26.7721 226.931 26.7461 225.473 26.7461ZM261.098 37C259.223 37 257.712 36.8307 256.566 36.4922C255.421 36.1536 254.535 35.5938 253.91 34.8125C253.285 34.0312 252.868 33.0026 252.66 31.7266C252.452 30.4505 252.348 28.875 252.348 27V25.75H256.098V27C256.098 28.5625 256.182 29.806 256.352 30.7305C256.521 31.6419 256.801 32.3385 257.191 32.8203C257.582 33.3021 258.096 33.6146 258.734 33.7578C259.372 33.888 260.16 33.9531 261.098 33.9531H269.848C271.098 33.9531 272.126 33.8424 272.934 33.6211C273.741 33.3867 274.379 33.0352 274.848 32.5664C275.316 32.0977 275.642 31.5052 275.824 30.7891C276.007 30.0729 276.098 29.2266 276.098 28.25V7H279.848V28.25C279.848 29.8125 279.678 31.1471 279.34 32.2539C279.001 33.3607 278.441 34.2656 277.66 34.9688C276.879 35.6719 275.85 36.1862 274.574 36.5117C273.298 36.8372 271.723 37 269.848 37H261.098ZM285.238 25.5938C285.238 23.2891 285.486 21.3815 285.98 19.8711C286.475 18.3607 287.27 17.1628 288.363 16.2773C289.457 15.3919 290.876 14.7734 292.621 14.4219C294.366 14.0573 296.488 13.875 298.988 13.875C301.488 13.875 303.611 14.0573 305.355 14.4219C307.1 14.7734 308.52 15.3919 309.613 16.2773C310.707 17.1628 311.501 18.3607 311.996 19.8711C312.491 21.3815 312.738 23.2891 312.738 25.5938C312.738 27.8984 312.491 29.8125 311.996 31.3359C311.501 32.8594 310.707 34.0703 309.613 34.9688C308.52 35.8672 307.1 36.5052 305.355 36.8828C303.611 37.2474 301.488 37.4297 298.988 37.4297C296.488 37.4297 294.366 37.2474 292.621 36.8828C290.876 36.5052 289.457 35.8672 288.363 34.9688C287.27 34.0703 286.475 32.8594 285.98 31.3359C285.486 29.8125 285.238 27.8984 285.238 25.5938ZM288.988 25.5938C288.988 26.8438 289.034 27.931 289.125 28.8555C289.216 29.7799 289.385 30.5742 289.633 31.2383C289.893 31.9023 290.251 32.4427 290.707 32.8594C291.163 33.276 291.762 33.6081 292.504 33.8555C293.246 34.1029 294.145 34.2721 295.199 34.3633C296.267 34.4544 297.53 34.5 298.988 34.5C300.238 34.5 301.352 34.474 302.328 34.4219C303.318 34.3568 304.177 34.2201 304.906 34.0117C305.648 33.8034 306.28 33.5104 306.801 33.1328C307.322 32.7422 307.738 32.2148 308.051 31.5508C308.376 30.8867 308.611 30.0729 308.754 29.1094C308.91 28.1328 308.988 26.9609 308.988 25.5938C308.988 24.2526 308.91 23.1133 308.754 22.1758C308.611 21.2253 308.376 20.431 308.051 19.793C307.738 19.1549 307.322 18.6536 306.801 18.2891C306.28 17.9115 305.648 17.6315 304.906 17.4492C304.177 17.2539 303.318 17.1302 302.328 17.0781C301.352 17.026 300.238 17 298.988 17C297.738 17 296.618 17.026 295.629 17.0781C294.652 17.1302 293.793 17.2539 293.051 17.4492C292.322 17.6315 291.697 17.9115 291.176 18.2891C290.655 18.6536 290.232 19.1549 289.906 19.793C289.594 20.431 289.359 21.2253 289.203 22.1758C289.06 23.1133 288.988 24.2526 288.988 25.5938ZM339.613 37V24.5C339.613 23.1068 339.509 21.9349 339.301 20.9844C339.092 20.0208 338.676 19.2461 338.051 18.6602C337.426 18.0742 336.54 17.651 335.395 17.3906C334.249 17.1302 332.738 17 330.863 17C328.832 17 327.165 17.1497 325.863 17.4492C324.574 17.7487 323.559 18.1719 322.816 18.7188C322.074 19.2656 321.56 19.9232 321.273 20.6914C321 21.4596 320.863 22.3125 320.863 23.25V37H317.113V14.5H320.863V18.25C321.137 17.612 321.527 17.0651 322.035 16.6094C322.543 16.1406 323.116 15.7435 323.754 15.418C324.392 15.0924 325.082 14.832 325.824 14.6367C326.566 14.4284 327.309 14.2721 328.051 14.168C328.793 14.0508 329.509 13.9727 330.199 13.9336C330.902 13.8945 331.54 13.875 332.113 13.875C333.78 13.875 335.212 13.9792 336.41 14.1875C337.621 14.3958 338.643 14.7018 339.477 15.1055C340.323 15.5091 341 16.0104 341.508 16.6094C342.016 17.2083 342.406 17.9049 342.68 18.6992C342.966 19.4805 343.155 20.3594 343.246 21.3359C343.337 22.2995 343.383 23.3542 343.383 24.5L343.363 37H339.613ZM361.527 37.4297C359.027 37.4297 356.905 37.2604 355.16 36.9219C353.415 36.5703 351.996 35.9714 350.902 35.125C349.809 34.2786 349.014 33.1458 348.52 31.7266C348.025 30.3073 347.777 28.5234 347.777 26.375C347.777 23.9141 348.025 21.8828 348.52 20.2812C349.014 18.6667 349.809 17.3841 350.902 16.4336C351.996 15.4831 353.415 14.819 355.16 14.4414C356.905 14.0638 359.027 13.875 361.527 13.875C363.311 13.875 364.854 14.0052 366.156 14.2656C367.471 14.526 368.591 14.9036 369.516 15.3984C370.453 15.8932 371.208 16.4922 371.781 17.1953C372.367 17.8984 372.823 18.6406 373.148 19.4219C373.487 20.1901 373.715 21.0951 373.832 22.1367C373.962 23.1784 374.027 24.2786 374.027 25.4375L373.715 26.6875H351.527C351.527 28.4062 351.697 29.819 352.035 30.9258C352.374 32.0195 352.934 32.8203 353.715 33.3281C354.496 33.8359 355.525 34.1615 356.801 34.3047C358.077 34.4349 359.652 34.5 361.527 34.5C363.246 34.5 364.665 34.4544 365.785 34.3633C366.918 34.2591 367.816 34.0703 368.48 33.7969C369.145 33.5234 369.607 33.1458 369.867 32.6641C370.141 32.1693 370.277 31.5312 370.277 30.75H374.027C374.027 31.9609 373.812 32.9961 373.383 33.8555C372.966 34.7018 372.27 35.3919 371.293 35.9258C370.316 36.4466 369.027 36.8242 367.426 37.0586C365.837 37.306 363.871 37.4297 361.527 37.4297ZM361.527 17C360.277 17 359.158 17.026 358.168 17.0781C357.191 17.1302 356.332 17.2474 355.59 17.4297C354.861 17.599 354.236 17.8529 353.715 18.1914C353.194 18.5169 352.771 18.9076 352.445 19.3633C352.133 19.806 351.898 20.4375 351.742 21.2578C351.599 22.0651 351.527 23.0417 351.527 24.1875H370.277C370.277 22.6641 370.115 21.4727 369.789 20.6133C369.464 19.7409 368.949 19.0247 368.246 18.4648C367.543 17.9049 366.638 17.5208 365.531 17.3125C364.424 17.1042 363.09 17 361.527 17ZM392.152 26.7461C390.382 26.7461 388.826 26.7201 387.484 26.668C386.143 26.6159 384.984 26.5117 384.008 26.3555C383.044 26.1862 382.237 25.9518 381.586 25.6523C380.948 25.3529 380.44 24.9557 380.062 24.4609C379.685 23.9531 379.418 23.3346 379.262 22.6055C379.105 21.8633 379.027 21.0625 379.027 20.2031C379.027 19.0312 379.275 18.0482 379.77 17.2539C380.264 16.4466 381.059 15.7956 382.152 15.3008C383.246 14.793 384.665 14.4284 386.41 14.207C388.155 13.9857 390.277 13.875 392.777 13.875C395.251 13.875 397.289 14.0052 398.891 14.2656C400.505 14.526 401.781 14.9297 402.719 15.4766C403.669 16.0104 404.333 16.6875 404.711 17.5078C405.089 18.3281 405.277 19.3047 405.277 20.4375H401.527C401.527 19.7344 401.391 19.1615 401.117 18.7188C400.857 18.276 400.395 17.931 399.73 17.6836C399.066 17.4232 398.168 17.2474 397.035 17.1562C395.915 17.0521 394.496 17 392.777 17C390.902 17 389.327 17.026 388.051 17.0781C386.775 17.1302 385.746 17.2604 384.965 17.4688C384.184 17.6771 383.624 17.9961 383.285 18.4258C382.947 18.8555 382.777 19.4479 382.777 20.2031C382.777 20.6458 382.803 21.082 382.855 21.5117C382.921 21.9284 383.057 22.2734 383.266 22.5469C383.474 22.8203 383.78 23.0286 384.184 23.1719C384.587 23.3151 385.134 23.4258 385.824 23.5039C386.527 23.569 387.393 23.6081 388.422 23.6211C389.451 23.6211 390.694 23.6211 392.152 23.6211C393.923 23.6211 395.473 23.6602 396.801 23.7383C398.142 23.8164 399.301 23.9531 400.277 24.1484C401.254 24.3438 402.061 24.6432 402.699 25.0469C403.337 25.4505 403.845 25.8932 404.223 26.375C404.613 26.8438 404.887 27.4036 405.043 28.0547C405.199 28.6927 405.277 29.4349 405.277 30.2812C405.277 31.1276 405.199 31.8893 405.043 32.5664C404.887 33.2305 404.613 33.8229 404.223 34.3438C403.832 34.8516 403.298 35.2943 402.621 35.6719C401.957 36.0365 401.117 36.3359 400.102 36.5703C399.086 36.7917 397.868 36.9544 396.449 37.0586C395.043 37.1758 393.402 37.2344 391.527 37.2344C389.184 37.2344 387.211 37.1172 385.609 36.8828C384.021 36.6484 382.738 36.2773 381.762 35.7695C380.785 35.2487 380.082 34.5781 379.652 33.7578C379.236 32.9375 379.027 31.9349 379.027 30.75H382.777C382.777 31.5312 382.908 32.1693 383.168 32.6641C383.441 33.1458 383.91 33.5234 384.574 33.7969C385.238 34.0703 386.13 34.2591 387.25 34.3633C388.383 34.4544 389.809 34.5 391.527 34.5C393.09 34.5 394.418 34.4674 395.512 34.4023C396.618 34.3242 397.543 34.207 398.285 34.0508C399.027 33.8945 399.613 33.7057 400.043 33.4844C400.473 33.263 400.798 32.9961 401.02 32.6836C401.241 32.3711 401.378 32.026 401.43 31.6484C401.495 31.2578 401.527 30.8281 401.527 30.3594C401.527 29.9297 401.495 29.5521 401.43 29.2266C401.378 28.888 401.247 28.556 401.039 28.2305C400.831 27.8919 400.525 27.638 400.121 27.4688C399.717 27.2995 399.164 27.1628 398.461 27.0586C397.771 26.9414 396.911 26.8633 395.883 26.8242C394.854 26.7721 393.611 26.7461 392.152 26.7461Z" fill="#1F2235" stroke="#1F2235" stroke-width="1.5"/>
<path d="M120.005 63.2363C118.63 63.2363 117.463 63.1361 116.503 62.9355C115.543 62.735 114.763 62.3913 114.161 61.9043C113.56 61.4173 113.123 60.762 112.851 59.9385C112.578 59.1149 112.442 58.0801 112.442 56.834C112.442 55.5449 112.578 54.4779 112.851 53.6328C113.123 52.7878 113.56 52.1182 114.161 51.624C114.763 51.1299 115.543 50.7826 116.503 50.582C117.463 50.3815 118.63 50.2812 120.005 50.2812C120.979 50.2812 121.795 50.3314 122.454 50.4316C123.113 50.5319 123.65 50.6572 124.065 50.8076C124.488 50.958 124.807 51.1227 125.021 51.3018C125.243 51.4736 125.405 51.6348 125.505 51.7852V46.5H127.567V63H125.505V61.1631C125.505 61.1631 125.333 61.3672 124.989 61.7754C124.688 62.069 124.355 62.3053 123.99 62.4844C123.625 62.6634 123.113 62.8353 122.454 63C121.795 63.1576 120.979 63.2363 120.005 63.2363ZM120.005 61.625C120.692 61.625 121.305 61.6107 121.842 61.582C122.379 61.5462 122.852 61.4746 123.26 61.3672C123.668 61.2598 124.012 61.1022 124.291 60.8945C124.577 60.6797 124.81 60.3968 124.989 60.0459C125.168 59.695 125.297 59.2617 125.376 58.7461C125.462 58.2233 125.505 57.5967 125.505 56.8662C125.505 56.1071 125.462 55.4626 125.376 54.9326C125.297 54.3955 125.168 53.9479 124.989 53.5898C124.81 53.2246 124.577 52.9382 124.291 52.7305C124.012 52.5228 123.668 52.3652 123.26 52.2578C122.852 52.1432 122.379 52.0716 121.842 52.043C121.305 52.0143 120.692 52 120.005 52C119.203 52 118.508 52.0251 117.921 52.0752C117.341 52.1253 116.847 52.2148 116.438 52.3438C116.03 52.4727 115.697 52.6517 115.439 52.8809C115.189 53.11 114.992 53.4036 114.849 53.7617C114.713 54.1198 114.619 54.5531 114.569 55.0615C114.526 55.5628 114.505 56.1536 114.505 56.834C114.505 57.5072 114.526 58.0944 114.569 58.5957C114.619 59.0898 114.713 59.516 114.849 59.874C114.992 60.2249 115.189 60.515 115.439 60.7441C115.697 60.9733 116.03 61.1523 116.438 61.2812C116.847 61.4102 117.341 61.4997 117.921 61.5498C118.508 61.5999 119.203 61.625 120.005 61.625ZM137.536 63.2363C136.161 63.2363 134.994 63.1432 134.034 62.957C133.075 62.7637 132.294 62.4342 131.692 61.9688C131.091 61.5033 130.654 60.8802 130.382 60.0996C130.11 59.319 129.974 58.3379 129.974 57.1562C129.974 55.8027 130.11 54.6855 130.382 53.8047C130.654 52.9167 131.091 52.2113 131.692 51.6885C132.294 51.1657 133.075 50.8005 134.034 50.5928C134.994 50.3851 136.161 50.2812 137.536 50.2812C138.517 50.2812 139.366 50.3529 140.082 50.4961C140.805 50.6393 141.421 50.847 141.93 51.1191C142.445 51.3913 142.861 51.7207 143.176 52.1074C143.498 52.4941 143.749 52.9023 143.928 53.332C144.114 53.7546 144.239 54.2523 144.304 54.8252C144.375 55.3981 144.411 56.0033 144.411 56.6406L144.239 57.3281H132.036C132.036 58.2734 132.129 59.0505 132.315 59.6592C132.502 60.2607 132.81 60.7012 133.239 60.9805C133.669 61.2598 134.235 61.4388 134.937 61.5176C135.638 61.5892 136.505 61.625 137.536 61.625C138.481 61.625 139.262 61.5999 139.878 61.5498C140.501 61.4925 140.995 61.3887 141.36 61.2383C141.726 61.0879 141.98 60.8802 142.123 60.6152C142.273 60.3431 142.349 59.9922 142.349 59.5625H144.411C144.411 60.2285 144.293 60.7979 144.057 61.2705C143.827 61.736 143.444 62.1156 142.907 62.4092C142.37 62.6956 141.661 62.9033 140.78 63.0322C139.907 63.1683 138.825 63.2363 137.536 63.2363ZM137.536 52C136.849 52 136.233 52.0143 135.688 52.043C135.151 52.0716 134.679 52.1361 134.271 52.2363C133.869 52.3294 133.526 52.4691 133.239 52.6553C132.953 52.8343 132.72 53.0492 132.541 53.2998C132.369 53.5433 132.24 53.8906 132.154 54.3418C132.076 54.7858 132.036 55.3229 132.036 55.9531H142.349C142.349 55.1152 142.259 54.46 142.08 53.9873C141.901 53.5075 141.618 53.1136 141.231 52.8057C140.845 52.4977 140.347 52.2865 139.738 52.1719C139.13 52.0573 138.396 52 137.536 52ZM154.38 57.3604C153.406 57.3604 152.55 57.346 151.812 57.3174C151.075 57.2887 150.438 57.2314 149.9 57.1455C149.37 57.0524 148.926 56.9235 148.568 56.7588C148.217 56.5941 147.938 56.3757 147.73 56.1035C147.523 55.8242 147.376 55.484 147.29 55.083C147.204 54.6748 147.161 54.2344 147.161 53.7617C147.161 53.1172 147.297 52.5765 147.569 52.1396C147.841 51.6956 148.278 51.3376 148.88 51.0654C149.481 50.7861 150.262 50.5856 151.222 50.4639C152.181 50.3421 153.349 50.2812 154.724 50.2812C156.084 50.2812 157.205 50.3529 158.086 50.4961C158.974 50.6393 159.676 50.8613 160.191 51.1621C160.714 51.4557 161.079 51.8281 161.287 52.2793C161.495 52.7305 161.599 53.2676 161.599 53.8906H159.536C159.536 53.5039 159.461 53.1888 159.311 52.9453C159.167 52.7018 158.913 52.512 158.548 52.376C158.183 52.2327 157.688 52.1361 157.065 52.0859C156.45 52.0286 155.669 52 154.724 52C153.692 52 152.826 52.0143 152.124 52.043C151.422 52.0716 150.856 52.1432 150.427 52.2578C149.997 52.3724 149.689 52.5479 149.503 52.7842C149.317 53.0205 149.224 53.3464 149.224 53.7617C149.224 54.0052 149.238 54.2451 149.267 54.4814C149.302 54.7106 149.378 54.9004 149.492 55.0508C149.607 55.2012 149.775 55.3158 149.997 55.3945C150.219 55.4733 150.52 55.5342 150.899 55.5771C151.286 55.613 151.762 55.6344 152.328 55.6416C152.894 55.6416 153.578 55.6416 154.38 55.6416C155.354 55.6416 156.206 55.6631 156.937 55.7061C157.674 55.749 158.312 55.8242 158.849 55.9316C159.386 56.0391 159.83 56.2038 160.181 56.4258C160.532 56.6478 160.811 56.8913 161.019 57.1562C161.233 57.4141 161.384 57.722 161.47 58.0801C161.556 58.431 161.599 58.8392 161.599 59.3047C161.599 59.7702 161.556 60.1891 161.47 60.5615C161.384 60.9268 161.233 61.2526 161.019 61.5391C160.804 61.8184 160.51 62.0618 160.138 62.2695C159.772 62.4701 159.311 62.6348 158.752 62.7637C158.193 62.8854 157.524 62.9749 156.743 63.0322C155.97 63.0967 155.067 63.1289 154.036 63.1289C152.747 63.1289 151.662 63.0645 150.781 62.9355C149.908 62.8066 149.202 62.6025 148.665 62.3232C148.128 62.0368 147.741 61.668 147.505 61.2168C147.276 60.7656 147.161 60.2142 147.161 59.5625H149.224C149.224 59.9922 149.295 60.3431 149.438 60.6152C149.589 60.8802 149.847 61.0879 150.212 61.2383C150.577 61.3887 151.068 61.4925 151.684 61.5498C152.307 61.5999 153.091 61.625 154.036 61.625C154.896 61.625 155.626 61.6071 156.228 61.5713C156.836 61.5283 157.345 61.4639 157.753 61.3779C158.161 61.292 158.483 61.1882 158.72 61.0664C158.956 60.9447 159.135 60.7979 159.257 60.626C159.379 60.4541 159.454 60.2643 159.482 60.0566C159.518 59.8418 159.536 59.6055 159.536 59.3477C159.536 59.1113 159.518 58.9036 159.482 58.7246C159.454 58.5384 159.382 58.3558 159.268 58.1768C159.153 57.9906 158.985 57.8509 158.763 57.7578C158.541 57.6647 158.236 57.5895 157.85 57.5322C157.47 57.4678 156.997 57.4248 156.432 57.4033C155.866 57.3747 155.182 57.3604 154.38 57.3604ZM171.567 63.2363C170.192 63.2363 169.025 63.1432 168.065 62.957C167.106 62.7637 166.325 62.4342 165.724 61.9688C165.122 61.5033 164.685 60.8802 164.413 60.0996C164.141 59.319 164.005 58.3379 164.005 57.1562C164.005 55.8027 164.141 54.6855 164.413 53.8047C164.685 52.9167 165.122 52.2113 165.724 51.6885C166.325 51.1657 167.106 50.8005 168.065 50.5928C169.025 50.3851 170.192 50.2812 171.567 50.2812C172.549 50.2812 173.397 50.3529 174.113 50.4961C174.837 50.6393 175.452 50.847 175.961 51.1191C176.477 51.3913 176.892 51.7207 177.207 52.1074C177.529 52.4941 177.78 52.9023 177.959 53.332C178.145 53.7546 178.271 54.2523 178.335 54.8252C178.407 55.3981 178.442 56.0033 178.442 56.6406L178.271 57.3281H166.067C166.067 58.2734 166.16 59.0505 166.347 59.6592C166.533 60.2607 166.841 60.7012 167.271 60.9805C167.7 61.2598 168.266 61.4388 168.968 61.5176C169.67 61.5892 170.536 61.625 171.567 61.625C172.513 61.625 173.293 61.5999 173.909 61.5498C174.532 61.4925 175.026 61.3887 175.392 61.2383C175.757 61.0879 176.011 60.8802 176.154 60.6152C176.305 60.3431 176.38 59.9922 176.38 59.5625H178.442C178.442 60.2285 178.324 60.7979 178.088 61.2705C177.859 61.736 177.476 62.1156 176.938 62.4092C176.401 62.6956 175.692 62.9033 174.812 63.0322C173.938 63.1683 172.856 63.2363 171.567 63.2363ZM171.567 52C170.88 52 170.264 52.0143 169.72 52.043C169.183 52.0716 168.71 52.1361 168.302 52.2363C167.901 52.3294 167.557 52.4691 167.271 52.6553C166.984 52.8343 166.751 53.0492 166.572 53.2998C166.4 53.5433 166.271 53.8906 166.186 54.3418C166.107 54.7858 166.067 55.3229 166.067 55.9531H176.38C176.38 55.1152 176.29 54.46 176.111 53.9873C175.932 53.5075 175.649 53.1136 175.263 52.8057C174.876 52.4977 174.378 52.2865 173.77 52.1719C173.161 52.0573 172.427 52 171.567 52ZM193.567 63V56.125C193.567 55.3587 193.51 54.7142 193.396 54.1914C193.281 53.6615 193.052 53.2354 192.708 52.9131C192.364 52.5908 191.877 52.3581 191.247 52.2148C190.617 52.0716 189.786 52 188.755 52C187.638 52 186.721 52.0824 186.005 52.2471C185.296 52.4118 184.737 52.6445 184.329 52.9453C183.921 53.2461 183.638 53.6077 183.48 54.0303C183.33 54.4528 183.255 54.9219 183.255 55.4375V63H181.192V50.625H183.255V52.6875C183.405 52.3366 183.62 52.0358 183.899 51.7852C184.179 51.5273 184.494 51.3089 184.845 51.1299C185.196 50.9508 185.575 50.8076 185.983 50.7002C186.392 50.5856 186.8 50.4997 187.208 50.4424C187.616 50.3779 188.01 50.335 188.39 50.3135C188.776 50.292 189.127 50.2812 189.442 50.2812C190.359 50.2812 191.147 50.3385 191.806 50.4531C192.472 50.5677 193.034 50.736 193.492 50.958C193.958 51.18 194.33 51.4557 194.609 51.7852C194.889 52.1146 195.104 52.4977 195.254 52.9346C195.411 53.3643 195.515 53.8477 195.565 54.3848C195.616 54.9147 195.641 55.4948 195.641 56.125L195.63 63H193.567ZM203.558 63L197.026 50.625H199.433L204.933 61.625L210.433 50.625H212.839L206.308 63H203.558ZM213.87 56.7266C213.87 55.459 214.006 54.4098 214.278 53.5791C214.55 52.7484 214.987 52.0895 215.589 51.6025C216.19 51.1156 216.971 50.7754 217.931 50.582C218.89 50.3815 220.058 50.2812 221.433 50.2812C222.808 50.2812 223.975 50.3815 224.935 50.582C225.894 50.7754 226.675 51.1156 227.276 51.6025C227.878 52.0895 228.315 52.7484 228.587 53.5791C228.859 54.4098 228.995 55.459 228.995 56.7266C228.995 57.9941 228.859 59.0469 228.587 59.8848C228.315 60.7227 227.878 61.3887 227.276 61.8828C226.675 62.377 225.894 62.7279 224.935 62.9355C223.975 63.1361 222.808 63.2363 221.433 63.2363C220.058 63.2363 218.89 63.1361 217.931 62.9355C216.971 62.7279 216.19 62.377 215.589 61.8828C214.987 61.3887 214.55 60.7227 214.278 59.8848C214.006 59.0469 213.87 57.9941 213.87 56.7266ZM215.933 56.7266C215.933 57.4141 215.958 58.012 216.008 58.5205C216.058 59.029 216.151 59.4658 216.287 59.8311C216.43 60.1963 216.627 60.4935 216.878 60.7227C217.129 60.9518 217.458 61.1344 217.866 61.2705C218.274 61.4066 218.769 61.4997 219.349 61.5498C219.936 61.5999 220.631 61.625 221.433 61.625C222.12 61.625 222.732 61.6107 223.27 61.582C223.814 61.5462 224.286 61.471 224.688 61.3564C225.096 61.2419 225.443 61.0807 225.729 60.873C226.016 60.6582 226.245 60.3682 226.417 60.0029C226.596 59.6377 226.725 59.1901 226.804 58.6602C226.89 58.123 226.933 57.4785 226.933 56.7266C226.933 55.9889 226.89 55.3623 226.804 54.8467C226.725 54.3239 226.596 53.887 226.417 53.5361C226.245 53.1852 226.016 52.9095 225.729 52.709C225.443 52.5013 225.096 52.3473 224.688 52.2471C224.286 52.1396 223.814 52.0716 223.27 52.043C222.732 52.0143 222.12 52 221.433 52C220.745 52 220.129 52.0143 219.585 52.043C219.048 52.0716 218.575 52.1396 218.167 52.2471C217.766 52.3473 217.422 52.5013 217.136 52.709C216.849 52.9095 216.617 53.1852 216.438 53.5361C216.266 53.887 216.137 54.3239 216.051 54.8467C215.972 55.3623 215.933 55.9889 215.933 56.7266ZM232.089 46.5H234.151V63H232.089V46.5ZM243.433 63L236.901 50.625H239.308L244.808 61.625L250.308 50.625H252.714L246.183 63H243.433ZM261.308 63.2363C259.933 63.2363 258.765 63.1432 257.806 62.957C256.846 62.7637 256.065 62.4342 255.464 61.9688C254.862 61.5033 254.425 60.8802 254.153 60.0996C253.881 59.319 253.745 58.3379 253.745 57.1562C253.745 55.8027 253.881 54.6855 254.153 53.8047C254.425 52.9167 254.862 52.2113 255.464 51.6885C256.065 51.1657 256.846 50.8005 257.806 50.5928C258.765 50.3851 259.933 50.2812 261.308 50.2812C262.289 50.2812 263.137 50.3529 263.854 50.4961C264.577 50.6393 265.193 50.847 265.701 51.1191C266.217 51.3913 266.632 51.7207 266.947 52.1074C267.27 52.4941 267.52 52.9023 267.699 53.332C267.885 53.7546 268.011 54.2523 268.075 54.8252C268.147 55.3981 268.183 56.0033 268.183 56.6406L268.011 57.3281H255.808C255.808 58.2734 255.901 59.0505 256.087 59.6592C256.273 60.2607 256.581 60.7012 257.011 60.9805C257.44 61.2598 258.006 61.4388 258.708 61.5176C259.41 61.5892 260.276 61.625 261.308 61.625C262.253 61.625 263.034 61.5999 263.649 61.5498C264.272 61.4925 264.767 61.3887 265.132 61.2383C265.497 61.0879 265.751 60.8802 265.895 60.6152C266.045 60.3431 266.12 59.9922 266.12 59.5625H268.183C268.183 60.2285 268.064 60.7979 267.828 61.2705C267.599 61.736 267.216 62.1156 266.679 62.4092C266.142 62.6956 265.433 62.9033 264.552 63.0322C263.678 63.1683 262.597 63.2363 261.308 63.2363ZM261.308 52C260.62 52 260.004 52.0143 259.46 52.043C258.923 52.0716 258.45 52.1361 258.042 52.2363C257.641 52.3294 257.297 52.4691 257.011 52.6553C256.724 52.8343 256.492 53.0492 256.312 53.2998C256.141 53.5433 256.012 53.8906 255.926 54.3418C255.847 54.7858 255.808 55.3229 255.808 55.9531H266.12C266.12 55.1152 266.031 54.46 265.852 53.9873C265.673 53.5075 265.39 53.1136 265.003 52.8057C264.616 52.4977 264.118 52.2865 263.51 52.1719C262.901 52.0573 262.167 52 261.308 52ZM278.151 63.2363C276.776 63.2363 275.609 63.1361 274.649 62.9355C273.69 62.735 272.909 62.3913 272.308 61.9043C271.706 61.4173 271.269 60.762 270.997 59.9385C270.725 59.1149 270.589 58.0801 270.589 56.834C270.589 55.5449 270.725 54.4779 270.997 53.6328C271.269 52.7878 271.706 52.1182 272.308 51.624C272.909 51.1299 273.69 50.7826 274.649 50.582C275.609 50.3815 276.776 50.2812 278.151 50.2812C279.125 50.2812 279.942 50.3314 280.601 50.4316C281.259 50.5319 281.797 50.6572 282.212 50.8076C282.634 50.958 282.953 51.1227 283.168 51.3018C283.39 51.4736 283.551 51.6348 283.651 51.7852V46.5H285.714V63H283.651V61.1631C283.651 61.1631 283.479 61.3672 283.136 61.7754C282.835 62.069 282.502 62.3053 282.137 62.4844C281.771 62.6634 281.259 62.8353 280.601 63C279.942 63.1576 279.125 63.2363 278.151 63.2363ZM278.151 61.625C278.839 61.625 279.451 61.6107 279.988 61.582C280.525 61.5462 280.998 61.4746 281.406 61.3672C281.814 61.2598 282.158 61.1022 282.438 60.8945C282.724 60.6797 282.957 60.3968 283.136 60.0459C283.315 59.695 283.444 59.2617 283.522 58.7461C283.608 58.2233 283.651 57.5967 283.651 56.8662C283.651 56.1071 283.608 55.4626 283.522 54.9326C283.444 54.3955 283.315 53.9479 283.136 53.5898C282.957 53.2246 282.724 52.9382 282.438 52.7305C282.158 52.5228 281.814 52.3652 281.406 52.2578C280.998 52.1432 280.525 52.0716 279.988 52.043C279.451 52.0143 278.839 52 278.151 52C277.349 52 276.655 52.0251 276.067 52.0752C275.487 52.1253 274.993 52.2148 274.585 52.3438C274.177 52.4727 273.844 52.6517 273.586 52.8809C273.335 53.11 273.138 53.4036 272.995 53.7617C272.859 54.1198 272.766 54.5531 272.716 55.0615C272.673 55.5628 272.651 56.1536 272.651 56.834C272.651 57.5072 272.673 58.0944 272.716 58.5957C272.766 59.0898 272.859 59.516 272.995 59.874C273.138 60.2249 273.335 60.515 273.586 60.7441C273.844 60.9733 274.177 61.1523 274.585 61.2812C274.993 61.4102 275.487 61.4997 276.067 61.5498C276.655 61.5999 277.349 61.625 278.151 61.625ZM288.12 56.7266C288.12 55.459 288.256 54.4098 288.528 53.5791C288.8 52.7484 289.237 52.0895 289.839 51.6025C290.44 51.1156 291.221 50.7754 292.181 50.582C293.14 50.3815 294.308 50.2812 295.683 50.2812C297.058 50.2812 298.225 50.3815 299.185 50.582C300.144 50.7754 300.925 51.1156 301.526 51.6025C302.128 52.0895 302.565 52.7484 302.837 53.5791C303.109 54.4098 303.245 55.459 303.245 56.7266C303.245 57.9941 303.109 59.0469 302.837 59.8848C302.565 60.7227 302.128 61.3887 301.526 61.8828C300.925 62.377 300.144 62.7279 299.185 62.9355C298.225 63.1361 297.058 63.2363 295.683 63.2363C294.308 63.2363 293.14 63.1361 292.181 62.9355C291.221 62.7279 290.44 62.377 289.839 61.8828C289.237 61.3887 288.8 60.7227 288.528 59.8848C288.256 59.0469 288.12 57.9941 288.12 56.7266ZM290.183 56.7266C290.183 57.4141 290.208 58.012 290.258 58.5205C290.308 59.029 290.401 59.4658 290.537 59.8311C290.68 60.1963 290.877 60.4935 291.128 60.7227C291.379 60.9518 291.708 61.1344 292.116 61.2705C292.524 61.4066 293.019 61.4997 293.599 61.5498C294.186 61.5999 294.881 61.625 295.683 61.625C296.37 61.625 296.982 61.6107 297.52 61.582C298.064 61.5462 298.536 61.471 298.938 61.3564C299.346 61.2419 299.693 61.0807 299.979 60.873C300.266 60.6582 300.495 60.3682 300.667 60.0029C300.846 59.6377 300.975 59.1901 301.054 58.6602C301.14 58.123 301.183 57.4785 301.183 56.7266C301.183 55.9889 301.14 55.3623 301.054 54.8467C300.975 54.3239 300.846 53.887 300.667 53.5361C300.495 53.1852 300.266 52.9095 299.979 52.709C299.693 52.5013 299.346 52.3473 298.938 52.2471C298.536 52.1396 298.064 52.0716 297.52 52.043C296.982 52.0143 296.37 52 295.683 52C294.995 52 294.379 52.0143 293.835 52.043C293.298 52.0716 292.825 52.1396 292.417 52.2471C292.016 52.3473 291.672 52.5013 291.386 52.709C291.099 52.9095 290.867 53.1852 290.688 53.5361C290.516 53.887 290.387 54.3239 290.301 54.8467C290.222 55.3623 290.183 55.9889 290.183 56.7266ZM316.308 54.6533C316.308 54.1377 316.268 53.7116 316.189 53.375C316.118 53.0312 315.942 52.7591 315.663 52.5586C315.384 52.3509 314.968 52.2077 314.417 52.1289C313.873 52.043 313.128 52 312.183 52C311.259 52 310.507 52.0824 309.927 52.2471C309.347 52.4046 308.892 52.6302 308.562 52.9238C308.233 53.2174 308.007 53.5684 307.886 53.9766C307.771 54.3848 307.714 54.8395 307.714 55.3408V63H305.651V50.625H307.714V52.5908C307.785 52.3688 307.918 52.1253 308.111 51.8604C308.305 51.5882 308.598 51.3376 308.992 51.1084C309.386 50.8721 309.895 50.6751 310.518 50.5176C311.148 50.36 311.932 50.2812 312.87 50.2812C313.944 50.2812 314.818 50.3779 315.491 50.5713C316.164 50.7575 316.687 51.0368 317.06 51.4092C317.439 51.7744 317.693 52.2292 317.822 52.7734C317.958 53.3177 318.026 53.9443 318.026 54.6533H316.308ZM346.214 50.625L341.401 63H338.651L334.87 52.8594L331.089 63H328.339L323.526 50.625H325.933L329.714 61.4531L333.839 50.625H335.901L339.983 61.4531L343.808 50.625H346.214ZM354.808 63.2363C353.433 63.2363 352.265 63.1432 351.306 62.957C350.346 62.7637 349.565 62.4342 348.964 61.9688C348.362 61.5033 347.925 60.8802 347.653 60.0996C347.381 59.319 347.245 58.3379 347.245 57.1562C347.245 55.8027 347.381 54.6855 347.653 53.8047C347.925 52.9167 348.362 52.2113 348.964 51.6885C349.565 51.1657 350.346 50.8005 351.306 50.5928C352.265 50.3851 353.433 50.2812 354.808 50.2812C355.789 50.2812 356.637 50.3529 357.354 50.4961C358.077 50.6393 358.693 50.847 359.201 51.1191C359.717 51.3913 360.132 51.7207 360.447 52.1074C360.77 52.4941 361.02 52.9023 361.199 53.332C361.385 53.7546 361.511 54.2523 361.575 54.8252C361.647 55.3981 361.683 56.0033 361.683 56.6406L361.511 57.3281H349.308C349.308 58.2734 349.401 59.0505 349.587 59.6592C349.773 60.2607 350.081 60.7012 350.511 60.9805C350.94 61.2598 351.506 61.4388 352.208 61.5176C352.91 61.5892 353.776 61.625 354.808 61.625C355.753 61.625 356.534 61.5999 357.149 61.5498C357.772 61.4925 358.267 61.3887 358.632 61.2383C358.997 61.0879 359.251 60.8802 359.395 60.6152C359.545 60.3431 359.62 59.9922 359.62 59.5625H361.683C361.683 60.2285 361.564 60.7979 361.328 61.2705C361.099 61.736 360.716 62.1156 360.179 62.4092C359.642 62.6956 358.933 62.9033 358.052 63.0322C357.178 63.1683 356.097 63.2363 354.808 63.2363ZM354.808 52C354.12 52 353.504 52.0143 352.96 52.043C352.423 52.0716 351.95 52.1361 351.542 52.2363C351.141 52.3294 350.797 52.4691 350.511 52.6553C350.224 52.8343 349.992 53.0492 349.812 53.2998C349.641 53.5433 349.512 53.8906 349.426 54.3418C349.347 54.7858 349.308 55.3229 349.308 55.9531H359.62C359.62 55.1152 359.531 54.46 359.352 53.9873C359.173 53.5075 358.89 53.1136 358.503 52.8057C358.116 52.4977 357.618 52.2865 357.01 52.1719C356.401 52.0573 355.667 52 354.808 52ZM371.995 63.2363C371.007 63.2363 370.183 63.1683 369.524 63.0322C368.873 62.9033 368.339 62.7637 367.924 62.6133C367.508 62.4557 367.193 62.2122 366.979 61.8828C366.764 61.5462 366.603 61.2848 366.495 61.0986V63H364.433V46.5H366.495V51.7959C366.588 51.6455 366.742 51.4844 366.957 51.3125C367.179 51.1335 367.498 50.9688 367.913 50.8184C368.336 50.6608 368.876 50.5319 369.535 50.4316C370.194 50.3314 371.014 50.2812 371.995 50.2812C373.37 50.2812 374.537 50.3851 375.497 50.5928C376.457 50.8005 377.237 51.1549 377.839 51.6562C378.44 52.1576 378.877 52.8307 379.149 53.6758C379.422 54.5137 379.558 55.5664 379.558 56.834C379.558 58.0801 379.422 59.1149 379.149 59.9385C378.877 60.762 378.44 61.4173 377.839 61.9043C377.237 62.3913 376.457 62.735 375.497 62.9355C374.537 63.1361 373.37 63.2363 371.995 63.2363ZM371.995 61.625C372.797 61.625 373.488 61.5999 374.068 61.5498C374.656 61.4997 375.153 61.4102 375.562 61.2812C375.97 61.1523 376.299 60.9733 376.55 60.7441C376.808 60.515 377.005 60.2249 377.141 59.874C377.284 59.516 377.377 59.0898 377.42 58.5957C377.47 58.0944 377.495 57.5072 377.495 56.834C377.495 56.1608 377.47 55.5736 377.42 55.0723C377.377 54.571 377.284 54.1449 377.141 53.7939C377.005 53.4359 376.808 53.1423 376.55 52.9131C376.299 52.6768 375.97 52.4941 375.562 52.3652C375.153 52.2292 374.656 52.1361 374.068 52.0859C373.488 52.0358 372.797 52.0107 371.995 52.0107C371.308 52.0107 370.695 52.0286 370.158 52.0645C369.621 52.0931 369.148 52.1647 368.74 52.2793C368.332 52.3939 367.985 52.5586 367.698 52.7734C367.419 52.9883 367.19 53.2747 367.011 53.6328C366.832 53.9909 366.699 54.4349 366.613 54.9648C366.535 55.4948 366.495 56.1286 366.495 56.8662C366.495 57.5967 366.535 58.2233 366.613 58.7461C366.699 59.2617 366.832 59.695 367.011 60.0459C367.19 60.3968 367.419 60.6797 367.698 60.8945C367.985 61.1022 368.332 61.2598 368.74 61.3672C369.148 61.4746 369.621 61.5462 370.158 61.582C370.695 61.6107 371.308 61.625 371.995 61.625Z" fill="#1F2235" stroke="#1F2235" stroke-width="1.5"/>
<path d="M1 32.621L13.2692 20.1915L16.6154 23.5814L7.69231 32.621L25.5385 50.7004V6.632L30 2V62L1 32.621Z" fill="#1F2235" stroke="#1F2235"/>
<path d="M40 1V63H36V1H40Z" fill="#1F2235" stroke="#1F2235"/>
<path d="M75 32.621L62.7308 20.1915L59.3846 23.5814L68.3077 32.621L50.4615 50.7004V6.632L46 2V62L75 32.621Z" fill="#1F2235" stroke="#1F2235"/>
</svg>
